#!OML:ASF E:\Steps\Project 1\Capture day 1\Session 2\Subject.ASF
:FULLY-SPECIFIED
:DEGREES
389
root 10.1058 9.4117 3.35101 -157.824 2.20903 175.298
lowerback 13.4083 -0.257997 -2.59308
upperback 4.20454 -0.226928 -1.06029
thorax -3.07719 0.0977931 0.381213
lowerneck -0.0079644 -1.17883 -4.68855
upperneck 3.30805 -1.63537 8.60502
head 1.1831 -0.714413 3.61187
rclavicle -1.78906e-015 -2.32578e-014
rhumerus 4.60599 7.28836 -85.6093
rradius 47.7461
rwrist 1.03194
rhand -11.3495 -61.5946
rfingers 7.12502
rthumb 14.6838 91.0547
lclavicle -1.78906e-015 -2.32578e-014
lhumerus 4.96508 -16.3965 71.6497
lradius 44.4438
lwrist -1.24526
lhand -33.142 -17.4789
lfingers 7.12502
lthumb -6.35128 12.4058
rfemur -96.6005 4.17443 14.467
rtibia 57.4703
rfoot 131.135 14.3599
rtoes -34.3463
lfemur -98.9627 -2.49891 -22.0909
ltibia 59.0166
lfoot -210.629 2.93145
ltoes -23.4661
390
root 10.1061 9.36475 3.28066 -157.658 2.18172 175.279
lowerback 13.2461 -0.17923 -2.76672
upperback 4.3152 -0.124803 -1.00818
thorax -2.87425 0.148875 0.517955
lowerneck -0.226097 -1.12568 -4.83935
upperneck 3.65494 -1.57314 8.62668
head 1.33222 -0.674336 3.65193
rclavicle 0 1.8487e-014
rhumerus 4.90111 7.01656 -85.7153
rradius 47.209
rwrist 1.12176
rhand -11.4361 -61.7376
rfingers 7.12502
rthumb 14.6003 91.2037
lclavicle 0 1.8487e-014
lhumerus 5.49991 -16.751 72.049
lradius 43.9168
lwrist -1.45365
lhand -33.046 -17.6036
lfingers 7.12502
lthumb -6.25859 12.284
rfemur -96.5128 4.10899 14.5981
rtibia 56.9756
rfoot 130.625 15.0411
rtoes -35.8053
lfemur -99.1237 -2.46003 -22.2244
ltibia 58.4643
lfoot -210.986 3.14497
ltoes -24.2918
391
root 10.1049 9.32511 3.21607 -157.406 2.03976 175.383
lowerback 12.9465 -0.116437 -2.70156
upperback 4.48753 -0.00309768 -0.936656
thorax -2.53538 0.20897 0.538715
lowerneck -0.532194 -1.10001 -4.94619
upperneck 4.07905 -1.54771 8.65458
head 1.5253 -0.648543 3.68676
rclavicle 4.17448e-015 9.54166e-015
rhumerus 5.21344 6.73647 -85.7519
rradius 46.7037
rwrist 1.27111
rhand -10.9437 -61.5098
rfingers 7.12502
rthumb 15.0747 90.9409
lclavicle 4.17448e-015 9.54166e-015
lhumerus 5.96191 -17.1405 72.4585
lradius 43.5647
lwrist -1.76055
lhand -32.8886 -17.5383
lfingers 7.12502
lthumb -6.10663 12.3537
rfemur -96.6115 3.98684 14.8548
rtibia 56.326
rfoot 130.163 15.2675
rtoes -36.4385
lfemur -99.3979 -2.48636 -22.1728
ltibia 57.8766
lfoot -211.481 3.37814
ltoes -24.8555
392
root 10.1053 9.29538 3.15888 -157.147 1.89079 175.351
lowerback 12.8017 -0.0832363 -2.78704
upperback 4.60078 0.0510622 -0.899913
thorax -2.33938 0.236734 0.618056
lowerneck -0.8353 -0.847408 -5.02219
upperneck 4.42279 -1.55673 8.69286
head 1.69102 -0.779098 3.71488
rclavicle -1.98785e-015 -5.96354e-016
rhumerus 5.50271 6.67912 -85.789
rradius 45.962
rwrist 1.36672
rhand -10.1993 -61.2846
rfingers 7.12502
rthumb 15.7917 90.6605
lclavicle -1.98785e-015 -5.96354e-016
lhumerus 6.17704 -17.6436 72.7479
lradius 43.4381
lwrist -1.74358
lhand -32.5859 -17.138
lfingers 7.12502
lthumb -5.81439 12.7623
rfemur -96.9121 3.86757 14.8903
rtibia 55.5998
rfoot 129.841 14.792
rtoes -35.4755
lfemur -99.614 -2.60613 -22.1869
ltibia 57.3157
lfoot -211.89 4.12959
ltoes -22.3959
393
root 10.1049 9.27576 3.1006 -156.933 1.7897 175.281
lowerback 12.756 -0.0648921 -2.89519
upperback 4.67605 0.0761154 -0.88375
thorax -2.23591 0.250552 0.692559
lowerneck -1.05971 -0.797048 -5.11621
upperneck 4.72848 -1.50523 8.72924
head 1.83006 -0.748256 3.75071
rclavicle -4.96962e-015 -1.47101e-014
rhumerus 5.68148 6.64546 -85.8544
rradius 45.2196
rwrist 1.35782
rhand -10.1688 -61.5779
rfingers 7.12502
rthumb 15.8211 90.9514
lclavicle -4.96962e-015 -1.47101e-014
lhumerus 6.07828 -18.2754 72.9797
lradius 43.5332
lwrist -1.27111
lhand -32.5586 -16.9458
lfingers 7.12502
lthumb -5.78806 12.9551
rfemur -97.2527 3.76225 14.8497
rtibia 55.037
rfoot 130.028 14.4229
rtoes -34.7372
lfemur -99.6605 -2.72344 -22.2772
ltibia 56.9038
lfoot -212.296 4.79834
ltoes -19.5474
394
root 10.1017 9.26629 3.04696 -156.674 1.66496 175.379
lowerback 12.7472 -0.0850869 -2.71205
upperback 4.74666 0.0823114 -0.895172
thorax -2.15845 0.257152 0.576957
lowerneck -1.25496 -0.749979 -5.16336
upperneck 5.05573 -1.46437 8.76702
head 1.97162 -0.723441 3.77846
rclavicle -1.59028e-015 6.55989e-015
rhumerus 5.73829 6.61228 -86.0232
rradius 44.9245
rwrist 0.961802
rhand -9.35448 -63.8316
rfingers 7.12502
rthumb 16.6052 93.1412
lclavicle -1.59028e-015 6.55989e-015
lhumerus 5.86724 -18.9238 73.1186
lradius 43.6915
lwrist -0.665159
lhand -32.7216 -16.6971
lfingers 7.12502
lthumb -5.9454 13.1995
rfemur -97.6132 3.67107 14.9988
rtibia 54.5928
rfoot 130.6 14.3707
rtoes -35.0787
lfemur -99.7 -2.77966 -22.2247
ltibia 56.6278
lfoot -212.675 5.17757
ltoes -18.1106
